<?xml version="1.0" encoding="UTF-8"?>
<svg version="1.1" xmlns="http://www.w3.org/2000/svg" width="512" height="512">
<path d="M0 0 C1.23363281 0.01353516 1.23363281 0.01353516 2.4921875 0.02734375 C4.49492083 0.05063135 6.49750154 0.08649041 8.5 0.125 C7.654375 1.053125 6.80875 1.98125 5.9375 2.9375 C-1.21755315 11.3244373 -6.98316151 21.17898134 -10.3203125 31.71484375 C-11.85391962 34.84807419 -13.64982486 35.92397224 -16.5625 37.8125 C-27.17219966 45.24067304 -33.98296298 55.1397306 -40.5 66.125 C-41.15742188 67.21941406 -41.81484375 68.31382813 -42.4921875 69.44140625 C-49.25473999 81.37771878 -53.77152499 94.28076897 -58.5 107.125 C-50.77796528 110.31274387 -42.94641244 113.11673741 -35.0625 115.875 C-25.6792397 119.16798859 -16.43739342 122.60506728 -7.44946289 126.87597656 C-2.69087794 129.03084936 0.28539674 129.52979614 5.5 128.125 C8.95458972 126.81587228 12.3137108 125.31566204 15.6875 123.8125 C46.29535001 110.65479821 78.58663749 101.24570984 111.5 96.125 C112.2537793 96.00640625 113.00755859 95.8878125 113.78417969 95.765625 C145.09070322 91.04647206 180.37973673 92.08675454 207.49609375 110.1171875 C220.10685762 119.66708635 227.14284292 132.42912687 229.8125 147.875 C233.62405853 179.78814004 217.30708509 210.47812628 198.4375 235.0625 C192.98349848 241.90920372 187.25438316 248.53020006 181.5 255.125 C183.14985287 259.12902889 185.95587674 262.01595544 188.8125 265.1875 C195.63469074 272.95582637 201.41161774 281.32849119 207.078125 289.96240234 C208.29672173 291.81582436 209.53505222 293.65341306 210.78125 295.48828125 C224.51010176 316.49015566 233.54256388 342.51537649 229.29296875 367.69921875 C227.2759344 376.41320459 224.15894233 384.17258514 218.5 391.125 C216.08745676 388.71245676 215.75852449 387.01185821 214.8125 383.75 C212.06924144 375.27637913 208.18997359 367.55234991 201.6875 361.375 C197.83815313 357.253133 197.71322078 352.88947305 197.26074219 347.53222656 C195.11406352 324.51094845 178.7672159 303.5747787 164.41015625 286.4296875 C162.70442777 284.37165109 161.08274306 282.27832441 159.5 280.125 C155.75089389 281.40691085 153.54456439 282.7768516 150.875 285.6875 C146.10410277 290.63608427 140.86878784 294.84475237 135.5 299.125 C134.28194718 300.10992947 133.06452875 301.09564387 131.84765625 302.08203125 C130.56534025 303.11747994 129.28279005 304.15263866 128 305.1875 C127.41984131 305.65768555 126.83968262 306.12787109 126.24194336 306.61230469 C125.36421265 307.31661621 125.36421265 307.31661621 124.46875 308.03515625 C123.86063477 308.53474854 123.25251953 309.03434082 122.62597656 309.54907227 C120.5 311.125 120.5 311.125 117.67871094 312.69897461 C113.07313113 315.43821386 110.09816571 317.43851815 108.265625 322.60522461 C107.56127506 326.11973192 107.21309156 329.65544439 106.93466187 333.22631836 C106.6154306 337.26495527 106.12297581 341.28434996 105.66015625 345.30859375 C105.57026932 346.13072357 105.48038239 346.95285339 105.38777161 347.79989624 C104.46761941 356.01402161 102.94753168 364.0536038 101.1875 372.125 C101.04049652 372.80211029 100.89349304 373.47922058 100.74203491 374.17684937 C93.69618093 406.30884032 84.16659566 440.55657283 65.5 468.125 C64.77425781 469.20652344 64.04851562 470.28804688 63.30078125 471.40234375 C53.39129854 485.86756822 42.20187855 498.45038998 26.375 506.5 C25.71798096 506.83418945 25.06096191 507.16837891 24.3840332 507.51269531 C11.99532091 513.52365828 -3.20869339 514.321417 -16.4375 510.5625 C-18.48081702 509.80832552 -20.50319071 508.99487141 -22.5 508.125 C-24.09521484 507.43083984 -24.09521484 507.43083984 -25.72265625 506.72265625 C-34.74728357 502.32328488 -41.53694023 496.20694127 -48.5 489.125 C-49.60988281 488.01318359 -49.60988281 488.01318359 -50.7421875 486.87890625 C-56.91928641 480.31728913 -61.72358264 472.7308723 -66.5 465.125 C-67.19222656 464.02285156 -67.88445312 462.92070312 -68.59765625 461.78515625 C-77.68830407 446.58588227 -83.90295152 429.87224702 -89.5 413.125 C-96.21002658 413.73175772 -102.84583676 414.57488986 -109.5 415.625 C-141.32131019 420.64680051 -178.98543512 421.68644977 -206.5 402.125 C-214.72101402 395.8732332 -222.94905611 387.77098522 -224.5 377.125 C-223.83097656 377.269375 -223.16195312 377.41375 -222.47265625 377.5625 C-216.10622797 378.79305795 -209.96663304 379.3180609 -203.5 379.3125 C-202.40570679 379.3134668 -202.40570679 379.3134668 -201.28930664 379.31445312 C-197.87718664 379.27957491 -194.77038909 379.11671521 -191.5 378.125 C-186.56657517 377.5083219 -183.64606013 378.37515339 -179.125 380.4375 C-154.53416564 391.11071048 -123.84234916 387.04851657 -98.5 381.125 C-98.66081055 380.37331543 -98.82162109 379.62163086 -98.98730469 378.84716797 C-108.5 333.96380171 -108.5 333.96380171 -108.5 318.125 C-109.30050781 317.77308594 -109.30050781 317.77308594 -110.1171875 317.4140625 C-113.19722796 315.74781111 -115.87769356 313.6530868 -118.625 311.5 C-119.20193604 311.05124512 -119.77887207 310.60249023 -120.37329102 310.14013672 C-122.08531491 308.80569196 -123.79304651 307.46592106 -125.5 306.125 C-126.35207031 305.45984375 -127.20414062 304.7946875 -128.08203125 304.109375 C-149.81138473 286.95651885 -171.47131217 268.01902721 -188.5 246.125 C-189.99797978 244.33164392 -191.49803173 242.54001698 -193 240.75 C-212.74074491 216.50098808 -232.8242044 183.74375563 -229.5 151.125 C-227.61831932 136.45797111 -221.73861147 122.994271 -210.5 113.125 C-181.72817825 91.25272512 -144.5089385 91.67231989 -110.1640625 96.2734375 C-105.37698745 96.95872075 -100.63289686 97.81186241 -95.88818359 98.74462891 C-93.24467918 99.22985973 -93.24467918 99.22985973 -89.5 99.125 C-89.29955078 98.55281738 -89.09910156 97.98063477 -88.89257812 97.39111328 C-76.45985161 62.08752648 -59.70968342 21.98672615 -23.875 4.8125 C-15.79184242 1.09669078 -8.78231192 -0.18594471 0 0 Z M-171.5 128.125 C-172.510625 128.41503906 -173.52125 128.70507812 -174.5625 129.00390625 C-183.40903982 131.87662774 -190.05116216 136.59278298 -195.5 144.125 C-200.62831216 155.28553546 -198.09319897 166.70784161 -194.375 177.875 C-186.35106907 199.38195857 -172.2625871 217.98644466 -156.76171875 234.6796875 C-154.8095112 236.7903644 -152.92693722 238.93727557 -151.0625 241.125 C-144.75397674 248.3708746 -137.84029923 255.14433508 -130.53125 261.375 C-127.3156615 264.14535317 -124.21042889 267.03751646 -121.08984375 269.9140625 C-119.04769662 271.65743396 -117.02419137 273.21649219 -114.83813477 274.76318359 C-114.21181656 275.20729584 -113.58549835 275.65140808 -112.94020081 276.10897827 C-112.46493454 276.44426544 -111.98966827 276.77955261 -111.5 277.125 C-111.48018066 276.09133301 -111.46036133 275.05766602 -111.43994141 273.99267578 C-110.48003176 225.3074464 -107.16257315 177.96666619 -97.5 130.125 C-101.31180475 129.47501931 -105.12455932 128.83078071 -108.9375 128.1875 C-110.00677734 128.00509766 -111.07605469 127.82269531 -112.17773438 127.63476562 C-131.56261955 124.37431093 -152.39112827 122.55954111 -171.5 128.125 Z M38.5 148.125 C42.08737083 152.31990943 46.44371646 154.42065818 51.25 156.9375 C70.53994079 167.31331162 88.72697577 179.35263718 106.5 192.125 C107.55316406 192.87265625 108.60632813 193.6203125 109.69140625 194.390625 C122.86332856 203.82379207 135.75211593 213.95853521 147.6171875 225.00390625 C148.11387939 225.46531006 148.61057129 225.92671387 149.12231445 226.40209961 C150.47582927 227.66888301 151.81838847 228.9473433 153.16015625 230.2265625 C155.3995829 232.04352636 156.68420709 232.74782682 159.5 233.125 C176.76539927 213.5824713 200.77864703 185.01844807 199.5 157.125 C198.59851988 147.37017785 195.50531558 141.10319145 187.94140625 134.79296875 C148.24470742 107.67218411 78.1847923 132.88274413 38.5 148.125 Z M-67.5 138.125 C-92.0277999 203.26993644 -83.68756506 292.26066906 -71.375 359.125 C-71.18290955 360.18341599 -71.18290955 360.18341599 -70.98693848 361.26321411 C-70.62444486 363.23997889 -70.24622232 365.21384015 -69.8671875 367.1875 C-69.65175293 368.31285156 -69.43631836 369.43820312 -69.21435547 370.59765625 C-68.97861816 371.43167969 -68.74288086 372.26570312 -68.5 373.125 C-66.47480172 374.41096867 -66.47480172 374.41096867 -63.99169922 373.47924805 C-62.93998535 373.11871338 -61.88827148 372.75817871 -60.8046875 372.38671875 C-59.62640381 371.98412842 -58.44812012 371.58153809 -57.23413086 371.16674805 C-55.94741417 370.71630132 -54.66104546 370.26485954 -53.375 369.8125 C-52.39661667 369.47129623 -52.39661667 369.47129623 -51.39846802 369.12319946 C-38.54459233 364.63136239 -25.95183362 359.64005303 -13.5 354.125 C-11.82357422 353.38443359 -11.82357422 353.38443359 -10.11328125 352.62890625 C5.44493406 345.70455071 20.42723094 338.13499442 35.11425781 329.51757812 C37.18736539 328.3074875 39.27044074 327.12158377 41.3671875 325.953125 C62.80750237 313.97031623 83.02372293 300.05664794 102.5 285.125 C103.12181152 284.65030273 103.74362305 284.17560547 104.38427734 283.68652344 C111.54128498 278.20850701 118.40037081 272.56110055 125.01171875 266.4296875 C128.44226756 263.2522561 131.96438578 260.18447133 135.5 257.125 C133.90779246 253.01826958 130.94381063 250.44770049 127.75 247.5625 C127.17217773 247.0358374 126.59435547 246.5091748 125.99902344 245.96655273 C120.34738103 240.87931289 114.42930463 236.17998787 108.38623047 231.56982422 C106.41551428 230.0602852 104.45909053 228.53349781 102.50390625 227.00390625 C87.74198398 215.50832627 72.34223635 205.00452296 56.36914062 195.26611328 C54.57961289 194.1736038 52.79731336 193.07007568 51.015625 191.96484375 C34.41553154 181.75208162 17.09612318 172.5039125 -0.5 164.125 C-1.28955078 163.74811035 -2.07910156 163.3712207 -2.89257812 162.98291016 C-23.81062634 153.07037205 -45.30400002 144.70357349 -67.5 138.125 Z M69.94140625 344.2578125 C28.86184412 369.46759543 -14.09556333 388.35148388 -59.5 404.125 C-55.62141859 416.02519296 -51.34944323 427.36849233 -45.42138672 438.40429688 C-44.57577589 439.98348743 -43.75720541 441.57707965 -42.94140625 443.171875 C-35.25711066 457.91572671 -25.1733224 470.9911268 -10.5 479.125 C-9.53513672 479.69734375 -9.53513672 479.69734375 -8.55078125 480.28125 C-2.88552369 482.61209882 3.96563163 481.94687285 9.66796875 480.09765625 C35.0551459 468.24154894 48.24939144 438.31097014 57.33935547 413.45922852 C65.38986868 390.56961143 72.53325723 366.40228889 74.5 342.125 C72.74073349 342.125 71.40523976 343.35027461 69.94140625 344.2578125 Z " fill="#000000" transform="translate(259.5,-0.125)"/>
<path d="M0 0 C9.51317759 7.14956402 17.06969681 17.13600079 20.09375 28.81640625 C22.54359777 46.09658249 20.16668231 60.75088557 9.53125 74.90234375 C2.20959134 83.88442177 -8.84387154 91.27309942 -20.46875 92.90234375 C-37.68921787 94.13940284 -50.25717343 91.59656296 -64.65625 81.71484375 C-76.115439 70.25565475 -82.34759598 56.80524693 -82.5 40.57421875 C-81.85626868 26.99148796 -76.35050907 15.12933275 -67.46875 4.90234375 C-47.55495866 -11.70278972 -22.0278488 -14.9700754 0 0 Z " fill="#000000" transform="translate(290.46875,214.09765625)"/>
<path d="M0 0 C7.77391167 5.42525638 13.26932061 12.55993061 15 22 C15.86254824 31.23590114 14.77788842 39.52019154 9.421875 47.2890625 C3.01542419 54.9941182 -3.75563561 59.37791877 -13.75 60.75 C-22.70726363 61.47517577 -30.74141037 59.3597749 -38 54 C-45.96626568 46.35857233 -49.44477062 38.99589019 -50.3125 28.0625 C-49.99253219 18.57639556 -45.99068472 9.73236771 -39.11328125 3.2109375 C-27.97933179 -5.66997307 -12.5260176 -7.5023321 0 0 Z " fill="#000000" transform="translate(434,374)"/>
<path d="M0 0 C7.57949461 7.57949461 10.17076851 15.7784559 10.19165039 26.42944336 C9.93637962 35.12354872 6.238486 42.12620521 0.5625 48.625 C-6.92684147 55.31132674 -15.99340647 57.57753924 -25.8515625 57.1640625 C-34.5119365 55.9715505 -41.77927307 52.52231438 -47.62109375 45.9609375 C-54.42596046 36.81444229 -55.52473265 27.74487448 -54.3125 16.6875 C-52.1951951 7.60319741 -47.2533442 1.3635858 -39.5 -3.625 C-26.08875545 -11.10011991 -12.13289498 -9.10738936 0 0 Z " fill="#000000" transform="translate(77.3125,294.3125)"/>
<path d="M0 0 C0.63292969 0.391875 1.26585937 0.78375 1.91796875 1.1875 C2.54058594 1.538125 3.16320312 1.88875 3.8046875 2.25 C9.84377576 6.02279267 13.41738498 11.75759425 16.23046875 18.1875 C18.52243682 28.18881523 18.38927452 37.22283888 13.35546875 46.4375 C7.94790673 54.7133066 0.32302829 59.58531439 -9.23046875 61.65234375 C-19.49691635 63.25535048 -28.18305553 59.97969868 -36.70703125 54.5 C-42.61777338 48.74480371 -46.62601193 41.95979521 -47.41796875 33.671875 C-47.536529 22.33751526 -45.90941373 14.31676515 -38.0078125 5.94140625 C-27.86528899 -3.29590218 -12.49131104 -6.74952641 0 0 Z " fill="#000000" transform="translate(323.08203125,17.8125)"/>
</svg>
